# Rhino

mtllib old man forarm.mtl
g old_man
usemtl Plaster (8)
v 0.62372869253158569 4.6301493644714355 1.5008382797241211
v 0.62372869253158569 4.8344440460205078 1.5008382797241211
v 0.62372869253158569 4.6301493644714355 1.0409090518951416
v 0.62372869253158569 4.8344440460205078 1.0409090518951416
v 0.62372869253158569 4.6301493644714355 1.0409090518951416
v 0.62372869253158569 4.8344440460205078 1.0409090518951416
v 0.42473757266998291 4.6301493644714355 1.0409090518951416
v 0.42473757266998291 4.8344440460205078 1.0409090518951416
v 0.42473757266998291 4.6301493644714355 1.0409090518951416
v 0.42473757266998291 4.8344440460205078 1.0409090518951416
v 0.42473757266998291 4.6301493644714355 1.5008382797241211
v 0.42473757266998291 4.8344440460205078 1.5008382797241211
v 0.42473757266998291 4.6301493644714355 1.5008382797241211
v 0.42473757266998291 4.6301493644714355 1.0409090518951416
v 0.62372869253158569 4.6301493644714355 1.5008382797241211
v 0.62372869253158569 4.6301493644714355 1.0409090518951416
v 0.47104853391647339 4.6301493644714355 1.5008382797241211
v 0.47104853391647339 4.6301493644714355 1.1391067504882813
v 0.57741773128509521 4.6301493644714355 1.1391067504882813
v 0.57741773128509521 4.6301493644714355 1.5008382797241211
v 0.42473757266998291 4.8344440460205078 1.5008382797241211
v 0.42473757266998291 4.8344440460205078 1.0409090518951416
v 0.62372869253158569 4.8344440460205078 1.5008382797241211
v 0.62372869253158569 4.8344440460205078 1.0409090518951416
v 0.43809574842453003 4.6573362350463867 1.9336868524551392
v 0.43809574842453003 4.8072571754455566 1.9336868524551392
v 0.61037051677703857 4.6573362350463867 1.9336868524551392
v 0.61037051677703857 4.8072571754455566 1.9336868524551392
v 0.47104853391647339 4.6162862777709961 1.8495075702667236
v 0.57741773128509521 4.6162862777709961 1.8495075702667236
v 0.57741773128509521 4.6573362350463867 1.8495075702667236
v 0.47104853391647339 4.6573362350463867 1.8495075702667236
v 0.57741773128509521 4.6162862777709961 1.1391067504882813
v 0.57741773128509521 4.6301493644714355 1.1391067504882813
v 0.47104853391647339 4.6162862777709961 1.1391067504882813
v 0.47104853391647339 4.6301493644714355 1.1391067504882813
v 0.47104853391647339 4.6162862777709961 1.8495075702667236
v 0.47104853391647339 4.6162862777709961 1.1391067504882813
v 0.57741773128509521 4.6162862777709961 1.8495075702667236
v 0.57741773128509521 4.6162862777709961 1.1391067504882813
v 0.57741773128509521 4.6162862777709961 1.8495075702667236
v 0.57741773128509521 4.6162862777709961 1.1391067504882813
v 0.57741773128509521 4.6573362350463867 1.8495075702667236
v 0.57741773128509521 4.6301493644714355 1.1391067504882813
v 0.57741773128509521 4.6301493644714355 1.5008382797241211
v 0.57741773128509521 4.6573362350463867 1.5008382797241211
v 0.47104853391647339 4.6162862777709961 1.1391067504882813
v 0.47104853391647339 4.6162862777709961 1.8495075702667236
v 0.47104853391647339 4.6573362350463867 1.8495075702667236
v 0.47104853391647339 4.6301493644714355 1.1391067504882813
v 0.47104853391647339 4.6573362350463867 1.5008382797241211
v 0.47104853391647339 4.6301493644714355 1.5008382797241211
v 0.42473757266998291 4.6301493644714355 1.5008382797241211
v 0.42473757266998291 4.8344440460205078 1.5008382797241211
v 0.62372869253158569 4.6301493644714355 1.5008382797241211
v 0.62372869253158569 4.8344440460205078 1.5008382797241211
v 0.47104853391647339 4.6301493644714355 1.5008382797241211
v 0.61037051677703857 4.8072571754455566 1.5008382797241211
v 0.61037051677703857 4.6573362350463867 1.5008382797241211
v 0.43809574842453003 4.6573362350463867 1.5008382797241211
v 0.43809574842453003 4.8072571754455566 1.5008382797241211
v 0.47104853391647339 4.6573362350463867 1.5008382797241211
v 0.57741773128509521 4.6573362350463867 1.5008382797241211
v 0.57741773128509521 4.6301493644714355 1.5008382797241211
v 0.61037051677703857 4.6573362350463867 1.9336868524551392
v 0.61037051677703857 4.8072571754455566 1.9336868524551392
v 0.61037051677703857 4.6573362350463867 1.5008382797241211
v 0.61037051677703857 4.8072571754455566 1.5008382797241211
v 0.43809574842453003 4.6573362350463867 1.5008382797241211
v 0.43809574842453003 4.8072571754455566 1.5008382797241211
v 0.43809574842453003 4.6573362350463867 1.9336868524551392
v 0.43809574842453003 4.8072571754455566 1.9336868524551392
v 0.43809574842453003 4.6573362350463867 1.9336868524551392
v 0.61037051677703857 4.6573362350463867 1.9336868524551392
v 0.57741773128509521 4.6573362350463867 1.8495075702667236
v 0.47104853391647339 4.6573362350463867 1.8495075702667236
v 0.47104853391647339 4.6573362350463867 1.5008382797241211
v 0.61037051677703857 4.6573362350463867 1.5008382797241211
v 0.43809574842453003 4.6573362350463867 1.5008382797241211
v 0.57741773128509521 4.6573362350463867 1.5008382797241211
v 0.43809574842453003 4.8072571754455566 1.9336868524551392
v 0.61037051677703857 4.8072571754455566 1.9336868524551392
v 0.61037051677703857 4.8072571754455566 1.5008382797241211
v 0.43809574842453003 4.8072571754455566 1.5008382797241211
vt 0.30001911520957947 0
vt 0.30001911520957947 0.16727051138877869
vt 0.6798933744430542 0
vt 0.6798933744430542 0.16727051138877869
vt 0.84862875938415527 0.47813791036605835
vt 0.6798933744430542 0.47813791036605835
vt 0.84862875938415527 0.64102792739868164
vt 0.6798933744430542 0.64102792739868164
vt 0.30001911520957947 0.47813791036605835
vt 0.30001911520957947 0.64687329530715942
vt 0.6784285306930542 0.47813791036605835
vt 0.6784285306930542 0.64687329530715942
vt 0.6784285306930542 0.65515559911727905
vt 0.30001911520957947 0.65515559911727905
vt 0.6784285306930542 0.81951045989990234
vt 0.30001911520957947 0.81951045989990234
vt 0.6784285306930542 0.69340574741363525
vt 0.38081175088882446 0.69340574741363525
vt 0.38081175088882446 0.78126037120819092
vt 0.6784285306930542 0.78126037120819092
vt 0.6784285306930542 0.82757782936096191
vt 0.30001911520957947 0.82757782936096191
vt 0.6784285306930542 0.99193269014358521
vt 0.30001911520957947 0.99193269014358521
vt 0 0
vt 0 0.12382571399211884
vt 0.14082391560077667 0
vt 0.14082391560077667 0.12382571399211884
vt 0.30001911520957947 0.18018519878387451
vt 0.38787376880645752 0.18018519878387451
vt 0.38787376880645752 0.21262501180171967
vt 0.30001911520957947 0.21262501180171967
vt 0.30001911520957947 0.16873535513877869
vt 0.30001911520957947 0.17872035503387451
vt 0.38787376880645752 0.16873535513877869
vt 0.38787376880645752 0.17872035503387451
vt 0.8867681622505188 0.3902832567691803
vt 0.30001911520957947 0.3902832567691803
vt 0.8867681622505188 0.47667306661605835
vt 0.30001911520957947 0.47667306661605835
vt 0.30001911520957947 0.35637861490249634
vt 0.8867681622505188 0.35637861490249634
vt 0.30001911520957947 0.3888184130191803
vt 0.8867681622505188 0.36733376979827881
vt 0.58799928426742554 0.36733376979827881
vt 0.58799928426742554 0.3888184130191803
vt 0.29855427145957947 0
vt 0.29855427145957947 0.58674901723861694
vt 0.26611447334289551 0.58674901723861694
vt 0.28759914636611938 0
vt 0.26611447334289551 0.29876887798309326
vt 0.28759914636611938 0.29876887798309326
vt 0.6798933744430542 0.64249277114868164
vt 0.6798933744430542 0.81122815608978271
vt 0.84278345108032227 0.64249277114868164
vt 0.84278345108032227 0.81122815608978271
vt 0.71780258417129517 0.64249277114868164
vt 0.83184868097305298 0.78877335786819458
vt 0.83184868097305298 0.66494762897491455
vt 0.69082814455032349 0.66494762897491455
vt 0.69082814455032349 0.78877335786819458
vt 0.71780258417129517 0.66494762897491455
vt 0.8048742413520813 0.66494762897491455
vt 0.8048742413520813 0.64249277114868164
vt 0.26464962959289551 0
vt 0.14228875935077667 0
vt 0.26464962959289551 0.35750719904899597
vt 0.14228875935077667 0.35750719904899597
vt 0.96660912036895752 0.64249277114868164
vt 0.84424829483032227 0.64249277114868164
vt 0.96660912036895752 0.99853515625
vt 0.84424829483032227 0.99853515625
vt 0.65752631425857544 0.21408985555171967
vt 0.65752631425857544 0.35491377115249634
vt 0.58799928426742554 0.32797691226005554
vt 0.58799928426742554 0.24102671444416046
vt 0.30001911520957947 0.24102671444416046
vt 0.30001911520957947 0.35491377115249634
vt 0.30001911520957947 0.21408985555171967
vt 0.30001911520957947 0.32797691226005554
vt 0 0.25725585222244263
vt 0.14082391560077667 0.25725585222244263
vt 0.14082391560077667 0.61476308107376099
vt 0 0.61476308107376099
vn 1 0 0
vn 1 0 0
vn 1 0 0
vn 1 0 0
vn 0 0 -1
vn 0 0 -1
vn 0 0 -1
vn 0 0 -1
vn -1 0 0
vn -1 0 0
vn -1 0 0
vn -1 0 0
vn 0 -1 0
vn 0 -1 0
vn 0 -1 0
vn 0 -1 0
vn 0 -1 0
vn 0 -1 0
vn 0 -1 0
vn 0 -1 0
vn 0 1 0
vn 0 1 0
vn 0 1 0
vn 0 1 0
vn 0 0 1
vn 0 0 1
vn 0 0 1
vn 0 0 1
vn 0 0 1
vn 0 0 1
vn 0 0 1
vn 0 0 1
vn 0 0 -1
vn 0 0 -1
vn 0 0 -1
vn 0 0 -1
vn 0 -1 0
vn 0 -1 0
vn 0 -1 0
vn 0 -1 0
vn 1 0 0
vn 1 0 0
vn 1 0 0
vn 1 0 0
vn 1 0 0
vn 1 0 0
vn -1 0 0
vn -1 0 0
vn -1 0 0
vn -1 0 0
vn -1 0 0
vn -1 0 0
vn 0 0 1
vn 0 0 1
vn 0 0 1
vn 0 0 1
vn 0 0 1
vn 0 0 1
vn 0 0 1
vn 0 0 1
vn 0 0 1
vn 0 0 1
vn 0 0 1
vn 0 0 1
vn 1 0 0
vn 1 0 0
vn 1 0 0
vn 1 0 0
vn -1 0 0
vn -1 0 0
vn -1 0 0
vn -1 0 0
vn 0 -1 0
vn 0 -1 0
vn 0 -1 0
vn 0 -1 0
vn 0 -1 0
vn 0 -1 0
vn 0 -1 0
vn 0 -1 0
vn 0 1 0
vn 0 1 0
vn 0 1 0
vn 0 1 0
f 2/2/2 1/1/1 3/3/3 4/4/4
f 6/6/6 5/5/5 7/7/7 8/8/8
f 10/10/10 9/9/9 11/11/11 12/12/12
f 17/17/17 13/13/13 14/14/14 18/18/18
f 16/16/16 19/19/19 18/18/18 14/14/14
f 19/19/19 15/15/15 20/20/20
f 15/15/15 19/19/19 16/16/16
f 22/22/22 21/21/21 23/23/23 24/24/24
f 26/26/26 25/25/25 27/27/27 28/28/28
f 32/32/32 29/29/29 30/30/30 31/31/31
f 34/34/34 33/33/33 35/35/35 36/36/36
f 38/38/38 40/40/40 39/39/39 37/37/37
f 43/43/43 41/41/41 45/45/45 46/46/46
f 42/42/42 45/45/45 41/41/41
f 42/42/42 44/44/44 45/45/45
f 47/47/47 52/52/52 50/50/50
f 49/49/49 52/52/52 48/48/48
f 47/47/47 48/48/48 52/52/52
f 51/51/51 52/52/52 49/49/49
f 53/53/53 57/57/57 62/62/62 60/60/60
f 60/60/60 61/61/61 54/54/54 53/53/53
f 56/56/56 54/54/54 61/61/61
f 59/59/59 63/63/63 64/64/64
f 55/55/55 59/59/59 64/64/64
f 58/58/58 59/59/59 55/55/55 56/56/56
f 61/61/61 58/58/58 56/56/56
f 66/66/66 65/65/65 67/67/67 68/68/68
f 70/70/70 69/69/69 71/71/71 72/72/72
f 79/79/79 76/76/76 73/73/73
f 74/74/74 73/73/73 76/76/76
f 76/76/76 79/79/79 77/77/77
f 78/78/78 74/74/74 75/75/75
f 76/76/76 75/75/75 74/74/74
f 75/75/75 80/80/80 78/78/78
f 84/84/84 81/81/81 82/82/82 83/83/83
