# Rhino

mtllib old man waist.mtl
g black
usemtl Plaster (1)
v 0.42800045013427734 2.7425189018249512 -0.03730284795165062
v 0.42800045013427734 3.0785210132598877 -0.03730284795165062
v 0.58981847763061523 2.7425189018249512 -0.03730284795165062
v 0.58981847763061523 3.0785210132598877 -0.03730284795165062
v 0.58981847763061523 2.7425189018249512 -0.03730284795165062
v 0.58981847763061523 3.0785210132598877 -0.03730284795165062
v 0.58981847763061523 2.7425189018249512 -0.53215146064758301
v 0.58981847763061523 3.0785210132598877 -0.53215146064758301
v 0.58981847763061523 2.7425189018249512 -0.53215146064758301
v 0.58981847763061523 3.0785210132598877 -0.53215146064758301
v 0.42800045013427734 2.7425189018249512 -0.53215146064758301
v 0.42800045013427734 3.0785210132598877 -0.53215146064758301
v 0.42800045013427734 2.7425189018249512 -0.53215146064758301
v 0.42800045013427734 3.0785210132598877 -0.53215146064758301
v 0.42800045013427734 2.7425189018249512 -0.03730284795165062
v 0.42800045013427734 3.0785210132598877 -0.03730284795165062
v 0.42800045013427734 2.7425189018249512 -0.03730284795165062
v 0.58981847763061523 2.7425189018249512 -0.03730284795165062
v 0.58981847763061523 2.7425189018249512 -0.53215146064758301
v 0.42800045013427734 2.7425189018249512 -0.53215146064758301
v 0.42800045013427734 3.0785210132598877 -0.03730284795165062
v 0.58981847763061523 3.0785210132598877 -0.03730284795165062
v 0.58981847763061523 3.0785210132598877 -0.53215146064758301
v 0.42800045013427734 3.0785210132598877 -0.53215146064758301
vt 0 0
vt 0 0.75468611717224121
vt 0.16047146916389465 0
vt 0.16047146916389465 0.75468611717224121
vt 0.16047146916389465 0
vt 0.16047146916389465 0.75468611717224121
vt 0.5 0
vt 0.5 0.75468611717224121
vt 0.5 0
vt 0.5 0.75468611717224121
vt 0.66047149896621704 0
vt 0.66047149896621704 0.75468611717224121
vt 0.66047149896621704 0
vt 0.66047149896621704 0.75468611717224121
vt 1 0
vt 1 0.75468611717224121
vt 0.37678831815719604 1
vt 0.37678831815719604 0.75468683242797852
vt 0 0.75468683242797852
vt 0 1
vt 1 0.75468683242797852
vt 1 1
vt 0.62321168184280396 1
vt 0.62321168184280396 0.75468683242797852
vn 0 0 1
vn 0 0 1
vn 0 0 1
vn 0 0 1
vn 1 0 0
vn 1 0 0
vn 1 0 0
vn 1 0 0
vn 0 0 -1
vn 0 0 -1
vn 0 0 -1
vn 0 0 -1
vn -1 0 0
vn -1 0 0
vn -1 0 0
vn -1 0 0
vn 0 -1 0
vn 0 -1 0
vn 0 -1 0
vn 0 -1 0
vn 0 1 0
vn 0 1 0
vn 0 1 0
vn 0 1 0
f 1/1/1 3/3/3 4/4/4 2/2/2
f 5/5/5 7/7/7 8/8/8 6/6/6
f 9/9/9 11/11/11 12/12/12 10/10/10
f 13/13/13 15/15/15 16/16/16 14/14/14
f 18/18/18 17/17/17 20/20/20
f 20/20/20 19/19/19 18/18/18
f 22/22/22 24/24/24 21/21/21
f 24/24/24 22/22/22 23/23/23
usemtl Plaster (1)
v 0.33407884836196899 2.7425189018249512 -0.25043442845344543
v 0.33407884836196899 3.0785210132598877 -0.25043442845344543
v 0.49589687585830688 2.7425189018249512 -0.25043442845344543
v 0.49589687585830688 3.0785210132598877 -0.25043442845344543
v 0.49589687585830688 2.7425189018249512 -0.25043442845344543
v 0.49589687585830688 3.0785210132598877 -0.25043442845344543
v 0.49589687585830688 2.7425189018249512 -0.54283761978149414
v 0.49589687585830688 3.0785210132598877 -0.54283761978149414
v 0.49589687585830688 2.7425189018249512 -0.54283761978149414
v 0.49589687585830688 3.0785210132598877 -0.54283761978149414
v 0.33407884836196899 2.7425189018249512 -0.54283761978149414
v 0.33407884836196899 3.0785210132598877 -0.54283761978149414
v 0.33407884836196899 2.7425189018249512 -0.54283761978149414
v 0.33407884836196899 3.0785210132598877 -0.54283761978149414
v 0.33407884836196899 2.7425189018249512 -0.25043442845344543
v 0.33407884836196899 3.0785210132598877 -0.25043442845344543
v 0.33407884836196899 2.7425189018249512 -0.25043442845344543
v 0.49589687585830688 2.7425189018249512 -0.25043442845344543
v 0.49589687585830688 2.7425189018249512 -0.54283761978149414
v 0.33407884836196899 2.7425189018249512 -0.54283761978149414
v 0.33407884836196899 3.0785210132598877 -0.25043442845344543
v 0.49589687585830688 3.0785210132598877 -0.25043442845344543
v 0.49589687585830688 3.0785210132598877 -0.54283761978149414
v 0.33407884836196899 3.0785210132598877 -0.54283761978149414
vt 0 0
vt 0 0.75468611717224121
vt 0.16047146916389465 0
vt 0.16047146916389465 0.75468611717224121
vt 0.16047146916389465 0
vt 0.16047146916389465 0.75468611717224121
vt 0.5 0
vt 0.5 0.75468611717224121
vt 0.5 0
vt 0.5 0.75468611717224121
vt 0.66047149896621704 0
vt 0.66047149896621704 0.75468611717224121
vt 0.66047149896621704 0
vt 0.66047149896621704 0.75468611717224121
vt 1 0
vt 1 0.75468611717224121
vt 0.32187309861183167 1
vt 0.32187309861183167 0.75468683242797852
vt 0 0.75468683242797852
vt 0 1
vt 1 0.75468683242797852
vt 1 1
vt 0.67812687158584595 1
vt 0.67812687158584595 0.75468683242797852
vn 0 0 1
vn 0 0 1
vn 0 0 1
vn 0 0 1
vn 1 0 0
vn 1 0 0
vn 1 0 0
vn 1 0 0
vn 0 0 -1
vn 0 0 -1
vn 0 0 -1
vn 0 0 -1
vn -1 0 0
vn -1 0 0
vn -1 0 0
vn -1 0 0
vn 0 -1 0
vn 0 -1 0
vn 0 -1 0
vn 0 -1 0
vn 0 1 0
vn 0 1 0
vn 0 1 0
vn 0 1 0
f 25/25/25 27/27/27 28/28/28 26/26/26
f 29/29/29 31/31/31 32/32/32 30/30/30
f 33/33/33 35/35/35 36/36/36 34/34/34
f 37/37/37 39/39/39 40/40/40 38/38/38
f 42/42/42 41/41/41 44/44/44
f 44/44/44 43/43/43 42/42/42
f 46/46/46 48/48/48 45/45/45
f 48/48/48 46/46/46 47/47/47
usemtl Plaster (1)
v 0.57900547981262207 3.4873239994049072 -0.29597553610801697
v 0.57900547981262207 3.0780696868896484 -0.29597553610801697
v 0.57900547981262207 3.4873239994049072 -0.14903324842453003
v 0.57900547981262207 3.0780696868896484 -0.14903324842453003
v 0.57900547981262207 3.4873239994049072 -0.14903324842453003
v 0.57900547981262207 3.0780696868896484 -0.14903324842453003
v 0.31272214651107788 3.4873239994049072 -0.14903324842453003
v 0.31272214651107788 3.0780696868896484 -0.14903324842453003
v 0.31272214651107788 3.4873239994049072 -0.14903324842453003
v 0.31272214651107788 3.0780696868896484 -0.14903324842453003
v 0.31272214651107788 3.4873239994049072 -0.29597553610801697
v 0.31272214651107788 3.0780696868896484 -0.29597553610801697
v 0.31272214651107788 3.4873239994049072 -0.29597553610801697
v 0.31272214651107788 3.0780696868896484 -0.29597553610801697
v 0.57900547981262207 3.4873239994049072 -0.29597553610801697
v 0.57900547981262207 3.0780696868896484 -0.29597553610801697
v 0.57900547981262207 3.4873239994049072 -0.29597553610801697
v 0.57900547981262207 3.4873239994049072 -0.14903324842453003
v 0.31272214651107788 3.4873239994049072 -0.14903324842453003
v 0.31272214651107788 3.4873239994049072 -0.29597553610801697
v 0.57900547981262207 3.0780696868896484 -0.29597553610801697
v 0.57900547981262207 3.0780696868896484 -0.14903324842453003
v 0.31272214651107788 3.0780696868896484 -0.14903324842453003
v 0.31272214651107788 3.0780696868896484 -0.29597553610801697
vt 0 0
vt 0 0.79101884365081787
vt 0.16047146916389465 0
vt 0.16047146916389465 0.79101884365081787
vt 0.16047146916389465 0
vt 0.16047146916389465 0.79101884365081787
vt 0.5 0
vt 0.5 0.79101884365081787
vt 0.5 0
vt 0.5 0.79101884365081787
vt 0.66047149896621704 0
vt 0.66047149896621704 0.79101884365081787
vt 0.66047149896621704 0
vt 0.66047149896621704 0.79101884365081787
vt 1 0
vt 1 0.79101884365081787
vt 0.32220089435577393 1
vt 0.32220089435577393 0.79101967811584473
vt 0 0.79101967811584473
vt 0 1
vt 1 0.79101967811584473
vt 1 1
vt 0.67779910564422607 1
vt 0.67779910564422607 0.79101967811584473
vn 1 0 0
vn 1 0 0
vn 1 0 0
vn 1 0 0
vn 0 0 1
vn 0 0 1
vn 0 0 1
vn 0 0 1
vn -1 0 0
vn -1 0 0
vn -1 0 0
vn -1 0 0
vn 0 0 -1
vn 0 0 -1
vn 0 0 -1
vn 0 0 -1
vn 0 1 0
vn 0 1 0
vn 0 1 0
vn 0 1 0
vn 0 -1 0
vn 0 -1 0
vn 0 -1 0
vn 0 -1 0
f 49/49/49 51/51/51 52/52/52 50/50/50
f 53/53/53 55/55/55 56/56/56 54/54/54
f 57/57/57 59/59/59 60/60/60 58/58/58
f 61/61/61 63/63/63 64/64/64 62/62/62
f 66/66/66 65/65/65 68/68/68
f 68/68/68 67/67/67 66/66/66
f 70/70/70 72/72/72 69/69/69
f 72/72/72 70/70/70 71/71/71
usemtl Plaster (1)
v 0.32083365321159363 2.749746561050415 -0.47055178880691528
v 0.32083365321159363 3.0857486724853516 -0.47055178880691528
v 0.57089400291442871 2.749746561050415 -0.47055178880691528
v 0.57089400291442871 3.0857486724853516 -0.47055178880691528
v 0.57089400291442871 2.749746561050415 -0.47055178880691528
v 0.57089400291442871 3.0857486724853516 -0.47055178880691528
v 0.57089400291442871 2.749746561050415 -0.96344941854476929
v 0.57089400291442871 3.0857486724853516 -0.96344941854476929
v 0.57089400291442871 2.749746561050415 -0.96344941854476929
v 0.57089400291442871 3.0857486724853516 -0.96344941854476929
v 0.32083365321159363 2.749746561050415 -0.96344941854476929
v 0.32083365321159363 3.0857486724853516 -0.96344941854476929
v 0.32083365321159363 2.749746561050415 -0.96344941854476929
v 0.32083365321159363 3.0857486724853516 -0.96344941854476929
v 0.32083365321159363 2.749746561050415 -0.47055178880691528
v 0.32083365321159363 3.0857486724853516 -0.47055178880691528
v 0.32083365321159363 2.749746561050415 -0.47055178880691528
v 0.57089400291442871 2.749746561050415 -0.47055178880691528
v 0.57089400291442871 2.749746561050415 -0.96344941854476929
v 0.32083365321159363 2.749746561050415 -0.96344941854476929
v 0.32083365321159363 3.0857486724853516 -0.47055178880691528
v 0.57089400291442871 3.0857486724853516 -0.47055178880691528
v 0.57089400291442871 3.0857486724853516 -0.96344941854476929
v 0.32083365321159363 3.0857486724853516 -0.96344941854476929
vt 0 0
vt 0 0.70092815160751343
vt 0.16047146916389465 0
vt 0.16047146916389465 0.70092815160751343
vt 0.16047146916389465 0
vt 0.16047146916389465 0.70092815160751343
vt 0.5 0
vt 0.5 0.70092815160751343
vt 0.5 0
vt 0.5 0.70092815160751343
vt 0.66047149896621704 0
vt 0.66047149896621704 0.70092815160751343
vt 0.66047149896621704 0
vt 0.66047149896621704 0.70092815160751343
vt 1 0
vt 1 0.70092815160751343
vt 0.3317129909992218 1
vt 0.3317129909992218 0.70092886686325073
vt 0 0.70092886686325073
vt 0 1
vt 1 0.70092886686325073
vt 1 1
vt 0.66828703880310059 1
vt 0.66828703880310059 0.70092886686325073
vn 0 0 1
vn 0 0 1
vn 0 0 1
vn 0 0 1
vn 1 0 0
vn 1 0 0
vn 1 0 0
vn 1 0 0
vn 0 0 -1
vn 0 0 -1
vn 0 0 -1
vn 0 0 -1
vn -1 0 0
vn -1 0 0
vn -1 0 0
vn -1 0 0
vn 0 -1 0
vn 0 -1 0
vn 0 -1 0
vn 0 -1 0
vn 0 1 0
vn 0 1 0
vn 0 1 0
vn 0 1 0
f 73/73/73 75/75/75 76/76/76 74/74/74
f 77/77/77 79/79/79 80/80/80 78/78/78
f 81/81/81 83/83/83 84/84/84 82/82/82
f 85/85/85 87/87/87 88/88/88 86/86/86
f 90/90/90 89/89/89 92/92/92
f 92/92/92 91/91/91 90/90/90
f 94/94/94 96/96/96 93/93/93
f 96/96/96 94/94/94 95/95/95
g old_man
usemtl Plaster (8)
v 0.40474727749824524 2.8338770866394043 -0.28990969061851501
v 0.40474727749824524 3.3133676052093506 -0.28990969061851501
v 0.4869803786277771 2.8338770866394043 -0.28990969061851501
v 0.4869803786277771 3.3133676052093506 -0.28990969061851501
v 0.4869803786277771 2.8338770866394043 -0.28990969061851501
v 0.4869803786277771 3.3133676052093506 -0.28990969061851501
v 0.4869803786277771 2.8338770866394043 -0.65779417753219604
v 0.4869803786277771 3.3133676052093506 -0.65779417753219604
v 0.4869803786277771 2.8338770866394043 -0.65779417753219604
v 0.4869803786277771 3.3133676052093506 -0.65779417753219604
v 0.40474727749824524 2.8338770866394043 -0.65779417753219604
v 0.40474727749824524 3.3133676052093506 -0.65779417753219604
v 0.40474727749824524 2.8338770866394043 -0.65779417753219604
v 0.40474727749824524 3.3133676052093506 -0.65779417753219604
v 0.40474727749824524 2.8338770866394043 -0.28990969061851501
v 0.40474727749824524 3.3133676052093506 -0.28990969061851501
v 0.40474727749824524 2.8338770866394043 -0.28990969061851501
v 0.4869803786277771 2.8338770866394043 -0.28990969061851501
v 0.4869803786277771 2.8338770866394043 -0.65779417753219604
v 0.40474727749824524 2.8338770866394043 -0.65779417753219604
v 0.40474727749824524 3.3133676052093506 -0.28990969061851501
v 0.4869803786277771 3.3133676052093506 -0.28990969061851501
v 0.4869803786277771 3.3133676052093506 -0.65779417753219604
v 0.40474727749824524 3.3133676052093506 -0.65779417753219604
vt 0 0
vt 0 0.8722994327545166
vt 0.16047146916389465 0
vt 0.16047146916389465 0.8722994327545166
vt 0.16047146916389465 0
vt 0.16047146916389465 0.8722994327545166
vt 0.5 0
vt 0.5 0.8722994327545166
vt 0.5 0
vt 0.5 0.8722994327545166
vt 0.66047149896621704 0
vt 0.66047149896621704 0.8722994327545166
vt 0.66047149896621704 0
vt 0.66047149896621704 0.8722994327545166
vt 1 0
vt 1 0.8722994327545166
vt 0.40865373611450195 1
vt 0.40865373611450195 0.87230032682418823
vt 0 0.87230032682418823
vt 0 1
vt 1 0.87230032682418823
vt 1 1
vt 0.59134626388549805 1
vt 0.59134626388549805 0.87230032682418823
vn 0 0 1
vn 0 0 1
vn 0 0 1
vn 0 0 1
vn 1 0 0
vn 1 0 0
vn 1 0 0
vn 1 0 0
vn 0 0 -1
vn 0 0 -1
vn 0 0 -1
vn 0 0 -1
vn -1 0 0
vn -1 0 0
vn -1 0 0
vn -1 0 0
vn 0 -1 0
vn 0 -1 0
vn 0 -1 0
vn 0 -1 0
vn 0 1 0
vn 0 1 0
vn 0 1 0
vn 0 1 0
f 97/97/97 99/99/99 100/100/100 98/98/98
f 101/101/101 103/103/103 104/104/104 102/102/102
f 105/105/105 107/107/107 108/108/108 106/106/106
f 109/109/109 111/111/111 112/112/112 110/110/110
f 114/114/114 113/113/113 116/116/116
f 116/116/116 115/115/115 114/114/114
f 118/118/118 120/120/120 117/117/117
f 120/120/120 118/118/118 119/119/119
usemtl Plaster (8)
v 0.36242061853408813 2.9447824954986572 -0.3249506950378418
v 0.36242061853408813 3.4242727756500244 -0.3249506950378418
v 0.49506580829620361 2.9447824954986572 -0.3249506950378418
v 0.49506580829620361 3.4242727756500244 -0.3249506950378418
v 0.49506580829620361 2.9447824954986572 -0.3249506950378418
v 0.49506580829620361 3.4242727756500244 -0.3249506950378418
v 0.49506580829620361 2.9447824954986572 -0.50362175703048706
v 0.49506580829620361 3.4242727756500244 -0.50362175703048706
v 0.49506580829620361 2.9447824954986572 -0.50362175703048706
v 0.49506580829620361 3.4242727756500244 -0.50362175703048706
v 0.36242061853408813 2.9447824954986572 -0.50362175703048706
v 0.36242061853408813 3.4242727756500244 -0.50362175703048706
v 0.36242061853408813 2.9447824954986572 -0.50362175703048706
v 0.36242061853408813 3.4242727756500244 -0.50362175703048706
v 0.36242061853408813 2.9447824954986572 -0.3249506950378418
v 0.36242061853408813 3.4242727756500244 -0.3249506950378418
v 0.36242061853408813 2.9447824954986572 -0.3249506950378418
v 0.49506580829620361 2.9447824954986572 -0.3249506950378418
v 0.49506580829620361 2.9447824954986572 -0.50362175703048706
v 0.36242061853408813 2.9447824954986572 -0.50362175703048706
v 0.36242061853408813 3.4242727756500244 -0.3249506950378418
v 0.49506580829620361 3.4242727756500244 -0.3249506950378418
v 0.49506580829620361 3.4242727756500244 -0.50362175703048706
v 0.36242061853408813 3.4242727756500244 -0.50362175703048706
vt 0 0
vt 0 0.8218996524810791
vt 0.16047146916389465 0
vt 0.16047146916389465 0.8218996524810791
vt 0.16047146916389465 0
vt 0.16047146916389465 0.8218996524810791
vt 0.5 0
vt 0.5 0.8218996524810791
vt 0.5 0
vt 0.5 0.8218996524810791
vt 0.66047149896621704 0
vt 0.66047149896621704 0.8218996524810791
vt 0.66047149896621704 0
vt 0.66047149896621704 0.8218996524810791
vt 1 0
vt 1 0.8218996524810791
vt 0.28696069121360779 1
vt 0.28696069121360779 0.82190048694610596
vt 0 0.82190048694610596
vt 0 1
vt 1 0.82190048694610596
vt 1 1
vt 0.7130393385887146 1
vt 0.7130393385887146 0.82190048694610596
vn 0 0 1
vn 0 0 1
vn 0 0 1
vn 0 0 1
vn 1 0 0
vn 1 0 0
vn 1 0 0
vn 1 0 0
vn 0 0 -1
vn 0 0 -1
vn 0 0 -1
vn 0 0 -1
vn -1 0 0
vn -1 0 0
vn -1 0 0
vn -1 0 0
vn 0 -1 0
vn 0 -1 0
vn 0 -1 0
vn 0 -1 0
vn 0 1 0
vn 0 1 0
vn 0 1 0
vn 0 1 0
f 121/121/121 123/123/123 124/124/124 122/122/122
f 125/125/125 127/127/127 128/128/128 126/126/126
f 129/129/129 131/131/131 132/132/132 130/130/130
f 133/133/133 135/135/135 136/136/136 134/134/134
f 138/138/138 137/137/137 140/140/140
f 140/140/140 139/139/139 138/138/138
f 142/142/142 144/144/144 141/141/141
f 144/144/144 142/142/142 143/143/143
