# Rhino

mtllib en1 knee.mtl
g black
usemtl Plaster (1)
v -0.18544888496398926 -0.72900593280792236 0.11633621901273727
v -0.033999726176261902 -0.72880339622497559 0.17352651059627533
v -0.18544888496398926 -0.72900593280792236 0.17352651059627533
v -0.033999726176261902 -0.72880339622497559 0.11633621901273727
v -0.033999726176261902 -0.72880339622497559 0.17352651059627533
v -0.18544888496398926 -0.72900593280792236 0.17352651059627533
v -0.034347791224718094 -0.19179660081863403 0.17352651059627533
v -0.18579694628715515 -0.1919991672039032 0.17352651059627533
v -0.034347791224718094 -0.19179660081863403 0.17352651059627533
v -0.18579694628715515 -0.1919991672039032 0.17352651059627533
v -0.034347791224718094 -0.19179660081863403 0.096054397523403168
v -0.18579694628715515 -0.1919991672039032 0.096054397523403168
v -0.034347791224718094 -0.19179660081863403 0.096054397523403168
v -0.033999726176261902 -0.72880339622497559 0.17352651059627533
v -0.034347791224718094 -0.19179660081863403 0.17352651059627533
v -0.034023132175207138 -0.69269055128097534 0.11633621901273727
v -0.033999726176261902 -0.72880339622497559 0.11633621901273727
v -0.034023132175207138 -0.69269055128097534 0.096054397523403168
v -0.18579694628715515 -0.1919991672039032 0.096054397523403168
v -0.18544888496398926 -0.72900593280792236 0.17352651059627533
v -0.18579694628715515 -0.1919991672039032 0.17352651059627533
v -0.18547241389751434 -0.69269055128097534 0.11633621901273727
v -0.18544888496398926 -0.72900593280792236 0.11633621901273727
v -0.18547241389751434 -0.69269055128097534 0.096054397523403168
v -0.2619347870349884 -0.82537734508514404 -0.096054397523403168
v -0.27902847528457642 -0.82539635896682739 -0.096054397523403168
v -0.2619347870349884 -0.82537734508514404 0.096054397523403168
v -0.27902847528457642 -0.82539635896682739 0.096054397523403168
v 0 0 0.096054397523403168
v -0.27994582056999207 -0.00031124043744057417 0.096054397523403168
v 0 0 -0.096054397523403168
v -0.27994582056999207 -0.00031124043744057417 -0.096054397523403168
v 0 0 -0.096054397523403168
v -0.27994582056999207 -0.00031124043744057417 -0.096054397523403168
v -0.27902847528457642 -0.82539635896682739 -0.096054397523403168
v 0.00077012513065710664 -0.69269055128097534 -0.096054397523403168
v -0.2619347870349884 -0.69269055128097534 -0.096054397523403168
v -0.2619347870349884 -0.82537734508514404 -0.096054397523403168
v 0.00077012513065710664 -0.69269055128097534 -0.096054397523403168
v 0 0 -0.096054397523403168
v 0 0 0.096054397523403168
v 0.00077012513065710664 -0.69269055128097534 0.096054397523403168
v -0.27902847528457642 -0.82539635896682739 -0.096054397523403168
v -0.27994582056999207 -0.00031124043744057417 -0.096054397523403168
v -0.27902847528457642 -0.82539635896682739 0.096054397523403168
v -0.27994582056999207 -0.00031124043744057417 0.096054397523403168
v 0.018011201173067093 -0.84137392044067383 -0.11633621901273727
v -0.2619347870349884 -0.84137392044067383 -0.11633621901273727
v 0.018011201173067093 -0.84137392044067383 0.11633621901273727
v -0.2619347870349884 -0.84137392044067383 0.11633621901273727
v 0.018011201173067093 -0.84137392044067383 0.11633621901273727
v -0.2619347870349884 -0.84137392044067383 0.11633621901273727
v 0.018011201173067093 -0.69269055128097534 0.11633621901273727
v -0.2619347870349884 -0.69269055128097534 0.11633621901273727
v -0.034023132175207138 -0.69269055128097534 0.11633621901273727
v -0.033999726176261902 -0.72880339622497559 0.11633621901273727
v -0.18544888496398926 -0.72900593280792236 0.11633621901273727
v -0.18547241389751434 -0.69269055128097534 0.11633621901273727
v 0.018011201173067093 -0.69269055128097534 -0.11633621901273727
v -0.2619347870349884 -0.69269055128097534 -0.11633621901273727
v 0.018011201173067093 -0.84137392044067383 -0.11633621901273727
v -0.2619347870349884 -0.84137392044067383 -0.11633621901273727
v 0.018011201173067093 -0.84137392044067383 -0.11633621901273727
v 0.018011201173067093 -0.69269055128097534 -0.11633621901273727
v 0.018011201173067093 -0.84137392044067383 0.11633621901273727
v 0.018011201173067093 -0.69269055128097534 0.11633621901273727
v 0.018011201173067093 -0.69269055128097534 0.11633621901273727
v 0.018011201173067093 -0.69269055128097534 -0.11633621901273727
v -0.2619347870349884 -0.69269055128097534 -0.11633621901273727
v -0.034023132175207138 -0.69269055128097534 0.11633621901273727
v -0.2619347870349884 -0.69269055128097534 -0.096054397523403168
v 0.00077012513065710664 -0.69269055128097534 -0.096054397523403168
v 0.00077012513065710664 -0.69269055128097534 0.096054397523403168
v -0.034023132175207138 -0.69269055128097534 0.096054397523403168
v -0.2619347870349884 -0.84137392044067383 -0.11633621901273727
v -0.2619347870349884 -0.69269055128097534 -0.11633621901273727
v -0.2619347870349884 -0.84137392044067383 0.11633621901273727
v -0.2619347870349884 -0.69269055128097534 0.11633621901273727
v -0.2619347870349884 -0.69269055128097534 0.096054397523403168
v -0.2619347870349884 -0.82537734508514404 0.096054397523403168
v -0.2619347870349884 -0.82537734508514404 -0.096054397523403168
v -0.2619347870349884 -0.69269055128097534 -0.096054397523403168
v -0.27902847528457642 -0.82539635896682739 0.096054397523403168
v 0 0 0.096054397523403168
v -0.27994582056999207 -0.00031124043744057417 0.096054397523403168
v -0.2619347870349884 -0.69269055128097534 0.096054397523403168
v -0.18547241389751434 -0.69269055128097534 0.096054397523403168
v -0.2619347870349884 -0.82537734508514404 0.096054397523403168
v 0.00077012513065710664 -0.69269055128097534 0.096054397523403168
v -0.18579694628715515 -0.1919991672039032 0.096054397523403168
v -0.034347791224718094 -0.19179660081863403 0.096054397523403168
v -0.034023132175207138 -0.69269055128097534 0.096054397523403168
v -0.2619347870349884 -0.69269055128097534 0.11633621901273727
v -0.18547241389751434 -0.69269055128097534 0.096054397523403168
v -0.2619347870349884 -0.69269055128097534 0.096054397523403168
v -0.18547241389751434 -0.69269055128097534 0.11633621901273727
vt 0.36391955614089966 0.034233983606100082
vt 0.48067584633827209 0.078323498368263245
vt 0.36391955614089966 0.078323498368263245
vt 0.48067584633827209 0.034233983606100082
vt 0.7939610481262207 0
vt 0.67720478773117065 0
vt 0.7939610481262207 0.41252806782722473
vt 0.67720478773117065 0.41252806782722473
vt 0.48067584633827209 0.086617209017276764
vt 0.36391955614089966 0.086617209017276764
vt 0.48067584633827209 0.14634253084659576
vt 0.36391955614089966 0.14634253084659576
vt 0.91838067770004272 0.41252806782722473
vt 0.97810602188110352 0
vt 0.97810602188110352 0.41252806782722473
vt 0.93401646614074707 0.027741843834519386
vt 0.93401646614074707 0
vt 0.91838067770004272 0.027741843834519386
vt 0.83676135540008545 0.41252806782722473
vt 0.89648669958114624 0
vt 0.89648669958114624 0.41252806782722473
vt 0.85239714384078979 0.027897458523511887
vt 0.85239714384078979 0
vt 0.83676135540008545 0.027897458523511887
vt 0.36391955614089966 0.018577059730887413
vt 0.36391955614089966 0.031755063682794571
vt 0.51202136278152466 0.018577059730887413
vt 0.51202136278152466 0.031755063682794571
vt 0.21435295045375824 0.29846978187561035
vt 0 0.29846978187561035
vt 0.21435295045375824 0.44657155871391296
vt 0 0.44657155871391296
vt 0.36391955614089966 0.777912437915802
vt 0.36391955614089966 0.99226540327072144
vt 0.99853515625 0.99226540327072144
vt 0.89670366048812866 0.777912437915802
vt 0.89647901058197021 0.97906392812728882
vt 0.99853515625 0.97917687892913818
vt 0.21581779420375824 0.29846978187561035
vt 0.21581779420375824 0.83248364925384521
vt 0.36245471239089966 0.83248364925384521
vt 0.36245471239089966 0.29846978187561035
vt 0.99853515625 0.41399291157722473
vt 0.36391955614089966 0.41399291157722473
vt 0.99853515625 0.56062984466552734
vt 0.36391955614089966 0.56062984466552734
vt 0 0
vt 0 0.21581779420375824
vt 0.1793733686208725 0
vt 0.1793733686208725 0.21581779420375824
vt 0.52056217193603516 0.15757748484611511
vt 0.52056217193603516 0.37339529395103455
vt 0.63518613576889038 0.15757748484611511
vt 0.63518613576889038 0.37339529395103455
vt 0.63518613576889038 0.1976921409368515
vt 0.60734575986862183 0.19767409563064575
vt 0.6071895956993103 0.31443026661872864
vt 0.63518613576889038 0.31444841623306274
vt 0.36391955614089966 0.15757748484611511
vt 0.36391955614089966 0.37339529395103455
vt 0.47854351997375488 0.15757748484611511
vt 0.47854351997375488 0.37339529395103455
vt 0.18195977807044983 0.14923489093780518
vt 0.18195977807044983 0.2638588547706604
vt 0.36133316159248352 0.14923489093780518
vt 0.36133316159248352 0.2638588547706604
vt 0.21435295045375824 0.61290377378463745
vt 0.21435295045375824 0.79227709770202637
vt 0 0.79227709770202637
vt 0.17451056838035583 0.61290377378463745
vt 0 0.77664130926132202
vt 0.20115156471729279 0.77664130926132202
vt 0.20115156471729279 0.6285395622253418
vt 0.17451056838035583 0.6285395622253418
vt 0.18195977807044983 0
vt 0.18195977807044983 0.11462395638227463
vt 0.36133316159248352 0
vt 0.36133316159248352 0.11462395638227463
vt 0.34569737315177917 0.11462395638227463
vt 0.34569737315177917 0.012332184240221977
vt 0.19759558141231537 0.012332184240221977
vt 0.19759558141231537 0.11462395638227463
vt 0.36391955614089966 0.776447594165802
vt 0.99853515625 0.56209468841552734
vt 0.99853515625 0.776447594165802
vt 0.46597570180892944 0.76324611902236938
vt 0.46591031551361084 0.70469939708709717
vt 0.36391955614089966 0.76335906982421875
vt 0.465751051902771 0.56209468841552734
vt 0.85101771354675293 0.70452165603637695
vt 0.85104399919509888 0.58855783939361572
vt 0.4657808244228363 0.58873564004898071
vt 0.36391955614089966 0
vt 0.42286643385887146 0.015635799616575241
vt 0.36391955614089966 0.015635799616575241
vt 0.42286643385887146 0
vn 0.001337548834271729 -0.99999910593032837 0
vn 0.001337548834271729 -0.99999910593032837 0
vn 0.001337548834271729 -0.99999910593032837 0
vn 0.001337548834271729 -0.99999910593032837 0
vn 0 0 1
vn 0 0 1
vn 0 0 1
vn 0 0 1
vn -0.001337548834271729 0.99999910593032837 0
vn -0.001337548834271729 0.99999910593032837 0
vn -0.001337548834271729 0.99999910593032837 0
vn -0.001337548834271729 0.99999910593032837 0
vn 0.9999997615814209 0.00064815790392458439 0
vn 0.9999997615814209 0.00064815790392458439 0
vn 0.9999997615814209 0.00064815790392458439 0
vn 0.9999997615814209 0.00064815790392458439 0
vn 0.9999997615814209 0.00064815790392458439 0
vn 0.9999997615814209 0.00064815790392458439 0
vn -0.9999997615814209 -0.00064815790392458439 0
vn -0.9999997615814209 -0.00064815790392458439 0
vn -0.9999997615814209 -0.00064815790392458439 0
vn -0.9999997615814209 -0.00064815790392458439 0
vn -0.9999997615814209 -0.00064815790392458439 0
vn -0.9999997615814209 -0.00064815790392458439 0
vn 0.0011117875110358 -0.99999940395355225 0
vn 0.0011117875110358 -0.99999940395355225 0
vn 0.0011117875110358 -0.99999940395355225 0
vn 0.0011117875110358 -0.99999940395355225 0
vn -0.0011117875110358 0.99999940395355225 0
vn -0.0011117875110358 0.99999940395355225 0
vn -0.0011117875110358 0.99999940395355225 0
vn -0.0011117875110358 0.99999940395355225 0
vn 0 0 -1
vn 0 0 -1
vn 0 0 -1
vn 0 0 -1
vn 0 0 -1
vn 0 0 -1
vn 0.99999940395355225 0.0011117875110358 0
vn 0.99999940395355225 0.0011117875110358 0
vn 0.99999940395355225 0.0011117875110358 0
vn 0.99999940395355225 0.0011117875110358 0
vn -0.99999940395355225 -0.0011117875110358 0
vn -0.99999940395355225 -0.0011117875110358 0
vn -0.99999940395355225 -0.0011117875110358 0
vn -0.99999940395355225 -0.0011117875110358 0
vn 0 -1 0
vn 0 -1 0
vn 0 -1 0
vn 0 -1 0
vn 0 0 1
vn 0 0 1
vn 0 0 1
vn 0 0 1
vn 0 0 1
vn 0 0 1
vn 0 0 1
vn 0 0 1
vn 0 0 -1
vn 0 0 -1
vn 0 0 -1
vn 0 0 -1
vn 1 0 0
vn 1 0 0
vn 1 0 0
vn 1 0 0
vn 0 1 0
vn 0 1 0
vn 0 1 0
vn 0 1 0
vn 0 1 0
vn 0 1 0
vn 0 1 0
vn 0 1 0
vn -1 0 0
vn -1 0 0
vn -1 0 0
vn -1 0 0
vn -1 0 0
vn -1 0 0
vn -1 0 0
vn -1 0 0
vn 0 0 1
vn 0 0 1
vn 0 0 1
vn 0 0 1
vn 0 0 1
vn 0 0 1
vn 0 0 1
vn 0 0 1
vn 0 0 1
vn 0 0 1
vn 0 1 0
vn 0 1 0
vn 0 1 0
vn 0 1 0
f 1/1/1 4/4/4 2/2/2 3/3/3
f 6/6/6 5/5/5 7/7/7 8/8/8
f 10/10/10 9/9/9 11/11/11 12/12/12
f 13/13/13 16/16/16 18/18/18
f 15/15/15 16/16/16 13/13/13
f 16/16/16 15/15/15 14/14/14
f 17/17/17 16/16/16 14/14/14
f 22/22/22 19/19/19 24/24/24
f 21/21/21 22/22/22 20/20/20
f 23/23/23 20/20/20 22/22/22
f 19/19/19 22/22/22 21/21/21
f 26/26/26 25/25/25 27/27/27 28/28/28
f 30/30/30 29/29/29 31/31/31 32/32/32
f 34/34/34 33/33/33 37/37/37
f 36/36/36 37/37/37 33/33/33
f 35/35/35 34/34/34 37/37/37
f 37/37/37 38/38/38 35/35/35
f 40/40/40 41/41/41 42/42/42 39/39/39
f 44/44/44 43/43/43 45/45/45 46/46/46
f 48/48/48 47/47/47 49/49/49 50/50/50
f 57/57/57 51/51/51 56/56/56
f 53/53/53 56/56/56 51/51/51
f 54/54/54 52/52/52 57/57/57
f 51/51/51 57/57/57 52/52/52
f 56/56/56 53/53/53 55/55/55
f 57/57/57 58/58/58 54/54/54
f 60/60/60 59/59/59 61/61/61 62/62/62
f 64/64/64 66/66/66 65/65/65 63/63/63
f 70/70/70 67/67/67 73/73/73
f 67/67/67 68/68/68 72/72/72 73/73/73
f 73/73/73 74/74/74 70/70/70
f 69/69/69 72/72/72 68/68/68
f 72/72/72 69/69/69 71/71/71
f 76/76/76 75/75/75 81/81/81
f 80/80/80 81/81/81 75/75/75 77/77/77
f 81/81/81 82/82/82 76/76/76
f 78/78/78 80/80/80 77/77/77
f 80/80/80 78/78/78 79/79/79
f 86/86/86 83/83/83 88/88/88
f 91/91/91 92/92/92 89/89/89
f 90/90/90 91/91/91 84/84/84
f 89/89/89 84/84/84 91/91/91
f 85/85/85 86/86/86 90/90/90
f 90/90/90 86/86/86 87/87/87
f 84/84/84 85/85/85 90/90/90
f 83/83/83 86/86/86 85/85/85
f 93/93/93 96/96/96 94/94/94 95/95/95
g glow
usemtl Plaster (2)
v -0.011510892771184444 -0.6881331205368042 0.036058161407709122
v -0.20783458650112152 -0.68830496072769165 0.036058161407709122
v -0.011510892771184444 -0.6881331205368042 0.11888608336448669
v -0.20783458650112152 -0.68830496072769165 0.11888608336448669
v -0.011510892771184444 -0.6881331205368042 0.11888608336448669
v -0.20783458650112152 -0.68830496072769165 0.11888608336448669
v -0.011595677584409714 -0.2324972003698349 0.11888608336448669
v -0.20791937410831451 -0.23266908526420593 0.11888608336448669
v -0.011595677584409714 -0.2324972003698349 0.11888608336448669
v -0.20791937410831451 -0.23266908526420593 0.11888608336448669
v -0.011595677584409714 -0.2324972003698349 0.036058161407709122
v -0.20791937410831451 -0.23266908526420593 0.036058161407709122
v -0.011595677584409714 -0.2324972003698349 0.036058161407709122
v -0.20791937410831451 -0.23266908526420593 0.036058161407709122
v -0.011510892771184444 -0.6881331205368042 0.036058161407709122
v -0.20783458650112152 -0.68830496072769165 0.036058161407709122
v -0.011510892771184444 -0.6881331205368042 0.036058161407709122
v -0.011510892771184444 -0.6881331205368042 0.11888608336448669
v -0.011595677584409714 -0.2324972003698349 0.11888608336448669
v -0.011595677584409714 -0.2324972003698349 0.036058161407709122
v -0.20783458650112152 -0.68830496072769165 0.036058161407709122
v -0.20783458650112152 -0.68830496072769165 0.11888608336448669
v -0.20791937410831451 -0.23266908526420593 0.11888608336448669
v -0.20791937410831451 -0.23266908526420593 0.036058161407709122
vt 0 0
vt 0 0.77118009328842163
vt 0.11879432946443558 0
vt 0.11879432946443558 0.77118009328842163
vt 0.11879432946443558 0
vt 0.11879432946443558 0.77118009328842163
vt 0.5 0
vt 0.5 0.77118009328842163
vt 0.5 0
vt 0.5 0.77118009328842163
vt 0.61879432201385498 0
vt 0.61879432201385498 0.77118009328842163
vt 0.61879432201385498 0
vt 0.61879432201385498 0.77118009328842163
vt 1 0
vt 1 0.77118009328842163
vt 0.4230886697769165 1
vt 0.4230886697769165 0.77118086814880371
vt 0 0.77118086814880371
vt 0 1
vt 1 0.77118086814880371
vt 1 1
vt 0.5769113302230835 1
vt 0.5769113302230835 0.77118086814880371
vn 0.00087547115981578827 -0.99999964237213135 0
vn 0.00087547115981578827 -0.99999964237213135 0
vn 0.00087547115981578827 -0.99999964237213135 0
vn 0.00087547115981578827 -0.99999964237213135 0
vn 0 0 1
vn 0 0 1
vn 0 0 1
vn 0 0 1
vn -0.00087547115981578827 0.99999964237213135 0
vn -0.00087547115981578827 0.99999964237213135 0
vn -0.00087547115981578827 0.99999964237213135 0
vn -0.00087547115981578827 0.99999964237213135 0
vn 0 0 -1
vn 0 0 -1
vn 0 0 -1
vn 0 0 -1
vn 1 0.0001860800402937457 0
vn 1 0.0001860800402937457 0
vn 1 0.0001860800402937457 0
vn 1 0.0001860800402937457 0
vn -1 -0.0001860800402937457 0
vn -1 -0.0001860800402937457 0
vn -1 -0.0001860800402937457 0
vn -1 -0.0001860800402937457 0
f 97/97/97 99/99/99 100/100/100 98/98/98
f 101/101/101 103/103/103 104/104/104 102/102/102
f 105/105/105 107/107/107 108/108/108 106/106/106
f 109/109/109 111/111/111 112/112/112 110/110/110
f 114/114/114 113/113/113 116/116/116
f 116/116/116 115/115/115 114/114/114
f 118/118/118 120/120/120 117/117/117
f 120/120/120 118/118/118 119/119/119
