# Rhino

mtllib en1 forarm.mtl
g black
usemtl Plaster (1)
v 0.21806250512599945 -0.018053343519568443 0.48561191558837891
v 0.21806250512599945 0.18624140322208405 0.48561191558837891
v 0.21806250512599945 -0.018053343519568443 0.025682711973786354
v 0.21806250512599945 0.18624140322208405 0.025682711973786354
v 0.21806250512599945 -0.018053343519568443 0.025682711973786354
v 0.21806250512599945 0.18624140322208405 0.025682711973786354
v 0.019071377813816071 -0.018053343519568443 0.025682711973786354
v 0.019071377813816071 0.18624140322208405 0.025682711973786354
v 0.019071377813816071 -0.018053343519568443 0.025682711973786354
v 0.019071377813816071 0.18624140322208405 0.025682711973786354
v 0.019071377813816071 -0.018053343519568443 0.48561191558837891
v 0.019071377813816071 0.18624140322208405 0.48561191558837891
v 0.019071377813816071 -0.018053343519568443 0.48561191558837891
v 0.019071377813816071 -0.018053343519568443 0.025682711973786354
v 0.21806250512599945 -0.018053343519568443 0.48561191558837891
v 0.21806250512599945 -0.018053343519568443 0.025682711973786354
v 0.065382346510887146 -0.018053343519568443 0.48561191558837891
v 0.065382346510887146 -0.018053343519568443 0.1238803043961525
v 0.17175154387950897 -0.018053343519568443 0.1238803043961525
v 0.17175154387950897 -0.018053343519568443 0.48561191558837891
v 0.019071377813816071 0.18624140322208405 0.48561191558837891
v 0.019071377813816071 0.18624140322208405 0.025682711973786354
v 0.21806250512599945 0.18624140322208405 0.48561191558837891
v 0.21806250512599945 0.18624140322208405 0.025682711973786354
v 0.03242955356836319 0.0091336211189627647 0.9184604287147522
v 0.03242955356836319 0.15905444324016571 0.9184604287147522
v 0.20470432937145233 0.0091336211189627647 0.9184604287147522
v 0.20470432937145233 0.15905444324016571 0.9184604287147522
v 0.065382346510887146 -0.03191613033413887 0.83428120613098145
v 0.17175154387950897 -0.03191613033413887 0.83428120613098145
v 0.17175154387950897 0.0091336211189627647 0.83428120613098145
v 0.065382346510887146 0.0091336211189627647 0.83428120613098145
v 0.17175154387950897 -0.03191613033413887 0.1238803043961525
v 0.17175154387950897 -0.018053343519568443 0.1238803043961525
v 0.065382346510887146 -0.03191613033413887 0.1238803043961525
v 0.065382346510887146 -0.018053343519568443 0.1238803043961525
v 0.065382346510887146 -0.03191613033413887 0.83428120613098145
v 0.065382346510887146 -0.03191613033413887 0.1238803043961525
v 0.17175154387950897 -0.03191613033413887 0.83428120613098145
v 0.17175154387950897 -0.03191613033413887 0.1238803043961525
v 0.17175154387950897 -0.03191613033413887 0.83428120613098145
v 0.17175154387950897 -0.03191613033413887 0.1238803043961525
v 0.17175154387950897 0.0091336211189627647 0.83428120613098145
v 0.17175154387950897 -0.018053343519568443 0.1238803043961525
v 0.17175154387950897 -0.018053343519568443 0.48561191558837891
v 0.17175154387950897 0.0091336211189627647 0.48561191558837891
v 0.065382346510887146 -0.03191613033413887 0.1238803043961525
v 0.065382346510887146 -0.03191613033413887 0.83428120613098145
v 0.065382346510887146 0.0091336211189627647 0.83428120613098145
v 0.065382346510887146 -0.018053343519568443 0.1238803043961525
v 0.065382346510887146 0.0091336211189627647 0.48561191558837891
v 0.065382346510887146 -0.018053343519568443 0.48561191558837891
v 0.019071377813816071 -0.018053343519568443 0.48561191558837891
v 0.019071377813816071 0.18624140322208405 0.48561191558837891
v 0.21806250512599945 -0.018053343519568443 0.48561191558837891
v 0.21806250512599945 0.18624140322208405 0.48561191558837891
v 0.065382346510887146 -0.018053343519568443 0.48561191558837891
v 0.20470432937145233 0.15905444324016571 0.48561191558837891
v 0.20470432937145233 0.0091336211189627647 0.48561191558837891
v 0.03242955356836319 0.0091336211189627647 0.48561191558837891
v 0.03242955356836319 0.15905444324016571 0.48561191558837891
v 0.065382346510887146 0.0091336211189627647 0.48561191558837891
v 0.17175154387950897 0.0091336211189627647 0.48561191558837891
v 0.17175154387950897 -0.018053343519568443 0.48561191558837891
v 0.20470432937145233 0.0091336211189627647 0.9184604287147522
v 0.20470432937145233 0.15905444324016571 0.9184604287147522
v 0.20470432937145233 0.0091336211189627647 0.48561191558837891
v 0.20470432937145233 0.15905444324016571 0.48561191558837891
v 0.03242955356836319 0.0091336211189627647 0.48561191558837891
v 0.03242955356836319 0.15905444324016571 0.48561191558837891
v 0.03242955356836319 0.0091336211189627647 0.9184604287147522
v 0.03242955356836319 0.15905444324016571 0.9184604287147522
v 0.03242955356836319 0.0091336211189627647 0.9184604287147522
v 0.20470432937145233 0.0091336211189627647 0.9184604287147522
v 0.17175154387950897 0.0091336211189627647 0.83428120613098145
v 0.065382346510887146 0.0091336211189627647 0.83428120613098145
v 0.065382346510887146 0.0091336211189627647 0.48561191558837891
v 0.20470432937145233 0.0091336211189627647 0.48561191558837891
v 0.03242955356836319 0.0091336211189627647 0.48561191558837891
v 0.17175154387950897 0.0091336211189627647 0.48561191558837891
v 0.03242955356836319 0.15905444324016571 0.9184604287147522
v 0.20470432937145233 0.15905444324016571 0.9184604287147522
v 0.20470432937145233 0.15905444324016571 0.48561191558837891
v 0.03242955356836319 0.15905444324016571 0.48561191558837891
vt 0.30001911520957947 0
vt 0.30001911520957947 0.16727051138877869
vt 0.6798933744430542 0
vt 0.6798933744430542 0.16727051138877869
vt 0.84862875938415527 0.47813791036605835
vt 0.6798933744430542 0.47813791036605835
vt 0.84862875938415527 0.64102792739868164
vt 0.6798933744430542 0.64102792739868164
vt 0.30001911520957947 0.47813791036605835
vt 0.30001911520957947 0.64687329530715942
vt 0.6784285306930542 0.47813791036605835
vt 0.6784285306930542 0.64687329530715942
vt 0.6784285306930542 0.65515559911727905
vt 0.30001911520957947 0.65515559911727905
vt 0.6784285306930542 0.81951045989990234
vt 0.30001911520957947 0.81951045989990234
vt 0.6784285306930542 0.69340574741363525
vt 0.38081175088882446 0.69340574741363525
vt 0.38081175088882446 0.78126037120819092
vt 0.6784285306930542 0.78126037120819092
vt 0.6784285306930542 0.82757782936096191
vt 0.30001911520957947 0.82757782936096191
vt 0.6784285306930542 0.99193269014358521
vt 0.30001911520957947 0.99193269014358521
vt 0 0
vt 0 0.12382571399211884
vt 0.14228875935077667 0
vt 0.14228875935077667 0.12382571399211884
vt 0.30001911520957947 0.18018519878387451
vt 0.38787376880645752 0.18018519878387451
vt 0.38787376880645752 0.21262501180171967
vt 0.30001911520957947 0.21262501180171967
vt 0.30001911520957947 0.16873535513877869
vt 0.30001911520957947 0.17872035503387451
vt 0.38787376880645752 0.16873535513877869
vt 0.38787376880645752 0.17872035503387451
vt 0.8867681622505188 0.3902832567691803
vt 0.30001911520957947 0.3902832567691803
vt 0.8867681622505188 0.47667306661605835
vt 0.30001911520957947 0.47667306661605835
vt 0.30001911520957947 0.35637861490249634
vt 0.8867681622505188 0.35637861490249634
vt 0.30001911520957947 0.3888184130191803
vt 0.8867681622505188 0.36733376979827881
vt 0.58799928426742554 0.36733376979827881
vt 0.58799928426742554 0.3888184130191803
vt 0.29855427145957947 0
vt 0.29855427145957947 0.58674901723861694
vt 0.26611447334289551 0.58674901723861694
vt 0.28759914636611938 0
vt 0.26611447334289551 0.29876887798309326
vt 0.28759914636611938 0.29876887798309326
vt 0.6798933744430542 0.64249277114868164
vt 0.6798933744430542 0.81122815608978271
vt 0.84278345108032227 0.64249277114868164
vt 0.84278345108032227 0.81122815608978271
vt 0.71780258417129517 0.64249277114868164
vt 0.83184868097305298 0.78877335786819458
vt 0.83184868097305298 0.66494762897491455
vt 0.69082814455032349 0.66494762897491455
vt 0.69082814455032349 0.78877335786819458
vt 0.71780258417129517 0.66494762897491455
vt 0.8048742413520813 0.66494762897491455
vt 0.8048742413520813 0.64249277114868164
vt 0.12236087024211884 0.25725585222244263
vt 0 0.25725585222244263
vt 0.12236087024211884 0.61476308107376099
vt 0 0.61476308107376099
vt 0.96660912036895752 0.64249277114868164
vt 0.84424829483032227 0.64249277114868164
vt 0.96660912036895752 0.99853515625
vt 0.84424829483032227 0.99853515625
vt 0.65752631425857544 0.21408985555171967
vt 0.65752631425857544 0.35491377115249634
vt 0.58799928426742554 0.32797691226005554
vt 0.58799928426742554 0.24102671444416046
vt 0.30001911520957947 0.24102671444416046
vt 0.30001911520957947 0.35491377115249634
vt 0.30001911520957947 0.21408985555171967
vt 0.30001911520957947 0.32797691226005554
vt 0.12382571399211884 0.25725585222244263
vt 0.26464962959289551 0.25725585222244263
vt 0.26464962959289551 0.61476308107376099
vt 0.12382571399211884 0.61476308107376099
vn 1 0 0
vn 1 0 0
vn 1 0 0
vn 1 0 0
vn 0 0 -1
vn 0 0 -1
vn 0 0 -1
vn 0 0 -1
vn -1 0 0
vn -1 0 0
vn -1 0 0
vn -1 0 0
vn 0 -1 0
vn 0 -1 0
vn 0 -1 0
vn 0 -1 0
vn 0 -1 0
vn 0 -1 0
vn 0 -1 0
vn 0 -1 0
vn 0 1 0
vn 0 1 0
vn 0 1 0
vn 0 1 0
vn 0 0 1
vn 0 0 1
vn 0 0 1
vn 0 0 1
vn 0 0 1
vn 0 0 1
vn 0 0 1
vn 0 0 1
vn 0 0 -1
vn 0 0 -1
vn 0 0 -1
vn 0 0 -1
vn 0 -1 0
vn 0 -1 0
vn 0 -1 0
vn 0 -1 0
vn 1 0 0
vn 1 0 0
vn 1 0 0
vn 1 0 0
vn 1 0 0
vn 1 0 0
vn -1 0 0
vn -1 0 0
vn -1 0 0
vn -1 0 0
vn -1 0 0
vn -1 0 0
vn 0 0 1
vn 0 0 1
vn 0 0 1
vn 0 0 1
vn 0 0 1
vn 0 0 1
vn 0 0 1
vn 0 0 1
vn 0 0 1
vn 0 0 1
vn 0 0 1
vn 0 0 1
vn 1 0 0
vn 1 0 0
vn 1 0 0
vn 1 0 0
vn -1 0 0
vn -1 0 0
vn -1 0 0
vn -1 0 0
vn 0 -1 0
vn 0 -1 0
vn 0 -1 0
vn 0 -1 0
vn 0 -1 0
vn 0 -1 0
vn 0 -1 0
vn 0 -1 0
vn 0 1 0
vn 0 1 0
vn 0 1 0
vn 0 1 0
f 2/2/2 1/1/1 3/3/3 4/4/4
f 6/6/6 5/5/5 7/7/7 8/8/8
f 10/10/10 9/9/9 11/11/11 12/12/12
f 17/17/17 13/13/13 14/14/14 18/18/18
f 16/16/16 19/19/19 18/18/18 14/14/14
f 19/19/19 15/15/15 20/20/20
f 15/15/15 19/19/19 16/16/16
f 22/22/22 21/21/21 23/23/23 24/24/24
f 26/26/26 25/25/25 27/27/27 28/28/28
f 32/32/32 29/29/29 30/30/30 31/31/31
f 34/34/34 33/33/33 35/35/35 36/36/36
f 38/38/38 40/40/40 39/39/39 37/37/37
f 43/43/43 41/41/41 45/45/45 46/46/46
f 42/42/42 45/45/45 41/41/41
f 42/42/42 44/44/44 45/45/45
f 47/47/47 52/52/52 50/50/50
f 49/49/49 52/52/52 48/48/48
f 47/47/47 48/48/48 52/52/52
f 51/51/51 52/52/52 49/49/49
f 53/53/53 57/57/57 62/62/62 60/60/60
f 60/60/60 61/61/61 54/54/54 53/53/53
f 56/56/56 54/54/54 61/61/61
f 59/59/59 63/63/63 64/64/64
f 55/55/55 59/59/59 64/64/64
f 58/58/58 59/59/59 55/55/55 56/56/56
f 61/61/61 58/58/58 56/56/56
f 66/66/66 65/65/65 67/67/67 68/68/68
f 70/70/70 69/69/69 71/71/71 72/72/72
f 79/79/79 76/76/76 73/73/73
f 74/74/74 73/73/73 76/76/76
f 76/76/76 79/79/79 77/77/77
f 78/78/78 74/74/74 75/75/75
f 76/76/76 75/75/75 74/74/74
f 75/75/75 80/80/80 78/78/78
f 84/84/84 81/81/81 82/82/82 83/83/83
g glow
usemtl Plaster (2)
v 0.062250815331935883 0.044637981802225113 0.94503670930862427
v 0.062250815331935883 0.11772061884403229 0.94503670930862427
v 0.17488306760787964 0.044637981802225113 0.94503670930862427
v 0.17488306760787964 0.11772061884403229 0.94503670930862427
v 0.17488306760787964 0.044637981802225113 0.94503670930862427
v 0.17488306760787964 0.11772061884403229 0.94503670930862427
v 0.17488306760787964 0.044637981802225113 0.65453904867172241
v 0.17488306760787964 0.11772061884403229 0.65453904867172241
v 0.17488306760787964 0.044637981802225113 0.65453904867172241
v 0.17488306760787964 0.11772061884403229 0.65453904867172241
v 0.062250815331935883 0.044637981802225113 0.65453904867172241
v 0.062250815331935883 0.11772061884403229 0.65453904867172241
v 0.062250815331935883 0.044637981802225113 0.65453904867172241
v 0.062250815331935883 0.11772061884403229 0.65453904867172241
v 0.062250815331935883 0.044637981802225113 0.94503670930862427
v 0.062250815331935883 0.11772061884403229 0.94503670930862427
v 0.062250815331935883 0.044637981802225113 0.94503670930862427
v 0.17488306760787964 0.044637981802225113 0.94503670930862427
v 0.17488306760787964 0.044637981802225113 0.65453904867172241
v 0.062250815331935883 0.044637981802225113 0.65453904867172241
v 0.062250815331935883 0.11772061884403229 0.94503670930862427
v 0.17488306760787964 0.11772061884403229 0.94503670930862427
v 0.17488306760787964 0.11772061884403229 0.65453904867172241
v 0.062250815331935883 0.11772061884403229 0.65453904867172241
vt 0 0
vt 0 0.62247884273529053
vt 0.23167277872562408 0
vt 0.23167277872562408 0.62247884273529053
vt 0.23167277872562408 0
vt 0.23167277872562408 0.62247884273529053
vt 0.5 0
vt 0.5 0.62247884273529053
vt 0.5 0
vt 0.5 0.62247884273529053
vt 0.73167276382446289 0
vt 0.73167276382446289 0.62247884273529053
vt 0.73167276382446289 0
vt 0.73167276382446289 0.62247884273529053
vt 1 0
vt 1 0.62247884273529053
vt 0.36030277609825134 1
vt 0.36030277609825134 0.62247943878173828
vt 0 0.62247943878173828
vt 0 1
vt 1 0.62247943878173828
vt 1 1
vt 0.63969725370407104 1
vt 0.63969725370407104 0.62247943878173828
vn 0 0 1
vn 0 0 1
vn 0 0 1
vn 0 0 1
vn 1 0 0
vn 1 0 0
vn 1 0 0
vn 1 0 0
vn 0 0 -1
vn 0 0 -1
vn 0 0 -1
vn 0 0 -1
vn -1 0 0
vn -1 0 0
vn -1 0 0
vn -1 0 0
vn 0 -1 0
vn 0 -1 0
vn 0 -1 0
vn 0 -1 0
vn 0 1 0
vn 0 1 0
vn 0 1 0
vn 0 1 0
f 85/85/85 87/87/87 88/88/88 86/86/86
f 89/89/89 91/91/91 92/92/92 90/90/90
f 93/93/93 95/95/95 96/96/96 94/94/94
f 97/97/97 99/99/99 100/100/100 98/98/98
f 102/102/102 101/101/101 104/104/104
f 104/104/104 103/103/103 102/102/102
f 106/106/106 108/108/108 105/105/105
f 108/108/108 106/106/106 107/107/107
usemtl Plaster (2)
v 0 0 0.089326858520507813
v 0 0.16818806529045105 0.089326858520507813
v 0.23713389039039612 0 0.089326858520507813
v 0.23713389039039612 0.16818806529045105 0.089326858520507813
v 0.23713389039039612 0 0.089326858520507813
v 0.23713389039039612 0.16818806529045105 0.089326858520507813
v 0.23713389039039612 0 0
v 0.23713389039039612 0.16818806529045105 0
v 0.23713389039039612 0 0
v 0.23713389039039612 0.16818806529045105 0
v 0 0 0
v 0 0.16818806529045105 0
v 0 0 0
v 0 0.16818806529045105 0
v 0 0 0.089326858520507813
v 0 0.16818806529045105 0.089326858520507813
v 0 0 0.089326858520507813
v 0.23713389039039612 0 0.089326858520507813
v 0.23713389039039612 0 0
v 0 0 0
v 0 0.16818806529045105 0.089326858520507813
v 0.23713389039039612 0.16818806529045105 0.089326858520507813
v 0.23713389039039612 0.16818806529045105 0
v 0 0.16818806529045105 0
vt 0 0
vt 0 0.74245589971542358
vt 0.23167277872562408 0
vt 0.23167277872562408 0.74245589971542358
vt 0.23167277872562408 0
vt 0.23167277872562408 0.74245589971542358
vt 0.5 0
vt 0.5 0.74245589971542358
vt 0.5 0
vt 0.5 0.74245589971542358
vt 0.73167276382446289 0
vt 0.73167276382446289 0.74245589971542358
vt 0.73167276382446289 0
vt 0.73167276382446289 0.74245589971542358
vt 1 0
vt 1 0.74245589971542358
vt 0 1
vt 0.3631889820098877 1
vt 0.3631889820098877 0.74245667457580566
vt 0 0.74245667457580566
vt 0.6368110179901123 0.74245667457580566
vt 1 0.74245667457580566
vt 1 1
vt 0.6368110179901123 1
vn 0 0 1
vn 0 0 1
vn 0 0 1
vn 0 0 1
vn 1 0 0
vn 1 0 0
vn 1 0 0
vn 1 0 0
vn 0 0 -1
vn 0 0 -1
vn 0 0 -1
vn 0 0 -1
vn -1 0 0
vn -1 0 0
vn -1 0 0
vn -1 0 0
vn 0 -1 0
vn 0 -1 0
vn 0 -1 0
vn 0 -1 0
vn 0 1 0
vn 0 1 0
vn 0 1 0
vn 0 1 0
f 109/109/109 111/111/111 112/112/112 110/110/110
f 113/113/113 115/115/115 116/116/116 114/114/114
f 117/117/117 119/119/119 120/120/120 118/118/118
f 121/121/121 123/123/123 124/124/124 122/122/122
f 126/126/126 125/125/125 128/128/128
f 128/128/128 127/127/127 126/126/126
f 130/130/130 132/132/132 129/129/129
f 132/132/132 130/130/130 131/131/131
