# Rhino

mtllib en1 hand.mtl
g black
usemtl Plaster (1)
v 0 0 0
v 0 0.20587541162967682 0
v 0.23657248914241791 0 0
v 0.23657248914241791 0.20587541162967682 0
v 0.23657248914241791 0 0
v 0.23657248914241791 0.20587541162967682 0
v 0.23657248914241791 0 -0.27402094006538391
v 0.23657248914241791 0.20587541162967682 -0.27402094006538391
v 0.23657248914241791 0 -0.27402094006538391
v 0.23657248914241791 0.20587541162967682 -0.27402094006538391
v 0 0 -0.27402094006538391
v 0 0.20587541162967682 -0.27402094006538391
v 0 0 -0.27402094006538391
v 0 0.20587541162967682 -0.27402094006538391
v 0 0 0
v 0 0.20587541162967682 0
v 0 0 0
v 0.23657248914241791 0 0
v 0.23657248914241791 0 -0.27402094006538391
v 0 0 -0.27402094006538391
v 0 0.20587541162967682 0
v 0.23657248914241791 0.20587541162967682 0
v 0.23657248914241791 0.20587541162967682 -0.27402094006538391
v 0 0.20587541162967682 -0.27402094006538391
vt 0 0
vt 0 0.65159696340560913
vt 0.23167277872562408 0
vt 0.23167277872562408 0.65159696340560913
vt 0.23167277872562408 0
vt 0.23167277872562408 0.65159696340560913
vt 0.5 0
vt 0.5 0.65159696340560913
vt 0.5 0
vt 0.5 0.65159696340560913
vt 0.73167276382446289 0
vt 0.73167276382446289 0.65159696340560913
vt 0.73167276382446289 0
vt 0.73167276382446289 0.65159696340560913
vt 1 0
vt 1 0.65159696340560913
vt 0.26833575963973999 1
vt 0.26833575963973999 0.65159761905670166
vt 0 0.65159761905670166
vt 0 1
vt 1 0.65159761905670166
vt 1 1
vt 0.73166424036026001 1
vt 0.73166424036026001 0.65159761905670166
vn 0 0 1
vn 0 0 1
vn 0 0 1
vn 0 0 1
vn 1 0 0
vn 1 0 0
vn 1 0 0
vn 1 0 0
vn 0 0 -1
vn 0 0 -1
vn 0 0 -1
vn 0 0 -1
vn -1 0 0
vn -1 0 0
vn -1 0 0
vn -1 0 0
vn 0 -1 0
vn 0 -1 0
vn 0 -1 0
vn 0 -1 0
vn 0 1 0
vn 0 1 0
vn 0 1 0
vn 0 1 0
f 1/1/1 3/3/3 4/4/4 2/2/2
f 5/5/5 7/7/7 8/8/8 6/6/6
f 9/9/9 11/11/11 12/12/12 10/10/10
f 13/13/13 15/15/15 16/16/16 14/14/14
f 18/18/18 17/17/17 20/20/20
f 20/20/20 19/19/19 18/18/18
f 22/22/22 24/24/24 21/21/21
f 24/24/24 22/22/22 23/23/23
g glow
usemtl Plaster (2)
v 0.10184742510318756 -0.012036014348268509 0.0082383500412106514
v 0.10184742510318756 0.21208196878433228 0.0082383500412106514
v 0.13472506403923035 -0.012036014348268509 0.0082383500412106514
v 0.13472506403923035 0.21208196878433228 0.0082383500412106514
v 0.13472506403923035 -0.012036014348268509 0.0082383500412106514
v 0.13472506403923035 0.21208196878433228 0.0082383500412106514
v 0.13472506403923035 -0.012036014348268509 -0.28225928544998169
v 0.13472506403923035 0.21208196878433228 -0.28225928544998169
v 0.13472506403923035 -0.012036014348268509 -0.28225928544998169
v 0.13472506403923035 0.21208196878433228 -0.28225928544998169
v 0.10184742510318756 -0.012036014348268509 -0.28225928544998169
v 0.10184742510318756 0.21208196878433228 -0.28225928544998169
v 0.10184742510318756 -0.012036014348268509 -0.28225928544998169
v 0.10184742510318756 0.21208196878433228 -0.28225928544998169
v 0.10184742510318756 -0.012036014348268509 0.0082383500412106514
v 0.10184742510318756 0.21208196878433228 0.0082383500412106514
v 0.10184742510318756 -0.012036014348268509 0.0082383500412106514
v 0.13472506403923035 -0.012036014348268509 0.0082383500412106514
v 0.13472506403923035 -0.012036014348268509 -0.28225928544998169
v 0.10184742510318756 -0.012036014348268509 -0.28225928544998169
v 0.10184742510318756 0.21208196878433228 0.0082383500412106514
v 0.13472506403923035 0.21208196878433228 0.0082383500412106514
v 0.13472506403923035 0.21208196878433228 -0.28225928544998169
v 0.10184742510318756 0.21208196878433228 -0.28225928544998169
vt 0 0
vt 0 0.88657850027084351
vt 0.23167277872562408 0
vt 0.23167277872562408 0.88657850027084351
vt 0.23167277872562408 0
vt 0.23167277872562408 0.88657850027084351
vt 0.5 0
vt 0.5 0.88657850027084351
vt 0.5 0
vt 0.5 0.88657850027084351
vt 0.73167276382446289 0
vt 0.73167276382446289 0.88657850027084351
vt 0.73167276382446289 0
vt 0.73167276382446289 0.88657850027084351
vt 1 0
vt 1 0.88657850027084351
vt 0.44916489720344543 1
vt 0.44916489720344543 0.88657939434051514
vt 0 0.88657939434051514
vt 0 1
vt 1 0.88657939434051514
vt 1 1
vt 0.55083513259887695 1
vt 0.55083513259887695 0.88657939434051514
vn 0 0 1
vn 0 0 1
vn 0 0 1
vn 0 0 1
vn 1 0 0
vn 1 0 0
vn 1 0 0
vn 1 0 0
vn 0 0 -1
vn 0 0 -1
vn 0 0 -1
vn 0 0 -1
vn -1 0 0
vn -1 0 0
vn -1 0 0
vn -1 0 0
vn 0 -1 0
vn 0 -1 0
vn 0 -1 0
vn 0 -1 0
vn 0 1 0
vn 0 1 0
vn 0 1 0
vn 0 1 0
f 25/25/25 27/27/27 28/28/28 26/26/26
f 29/29/29 31/31/31 32/32/32 30/30/30
f 33/33/33 35/35/35 36/36/36 34/34/34
f 37/37/37 39/39/39 40/40/40 38/38/38
f 42/42/42 41/41/41 44/44/44
f 44/44/44 43/43/43 42/42/42
f 46/46/46 48/48/48 45/45/45
f 48/48/48 46/46/46 47/47/47
